<svg xmlns="http://www.w3.org/2000/svg" xmlns:xlink="http://www.w3.org/1999/xlink" width="900" zoomAndPan="magnify" viewBox="0 0 675 194.249992" height="259" preserveAspectRatio="xMidYMid meet" version="1.0"><defs><g/><clipPath id="282da086ff"><path d="M 1.296875 0 L 673.699219 0 L 673.699219 193.503906 L 1.296875 193.503906 Z M 1.296875 0 " clip-rule="nonzero"/></clipPath></defs><g clip-path="url(#282da086ff)"><path fill="#ffffff" d="M 1.296875 0 L 673.703125 0 L 673.703125 193.503906 L 1.296875 193.503906 Z M 1.296875 0 " fill-opacity="1" fill-rule="nonzero"/></g><g fill="#048748" fill-opacity="1"><g transform="translate(99.807664, 131.579286)"><g><path d="M 53.84375 -7.890625 C 47.039062 -1.890625 39.898438 1.109375 32.421875 1.109375 C 27.984375 1.109375 23.726562 0.0195312 19.65625 -2.15625 C 15.582031 -4.34375 12.140625 -7.398438 9.328125 -11.328125 C 4.585938 -17.910156 2.21875 -26.125 2.21875 -35.96875 C 2.21875 -43.226562 3.382812 -49.722656 5.71875 -55.453125 C 8.050781 -61.191406 11.328125 -65.765625 15.546875 -69.171875 C 17.910156 -71.097656 20.5 -72.578125 23.3125 -73.609375 C 26.125 -74.648438 28.9375 -75.171875 31.75 -75.171875 C 32.789062 -75.171875 33.789062 -75.09375 34.75 -74.9375 C 35.71875 -74.789062 36.976562 -74.535156 38.53125 -74.171875 L 39.640625 -76.5 L 54.515625 -69.609375 L 46.1875 -47.515625 C 44.257812 -50.109375 42.390625 -51.976562 40.578125 -53.125 C 38.765625 -54.269531 36.675781 -54.84375 34.3125 -54.84375 C 26.976562 -54.84375 23.3125 -48.8125 23.3125 -36.75 C 23.3125 -30.976562 24.195312 -26.5 25.96875 -23.3125 C 27.75 -20.132812 30.234375 -18.546875 33.421875 -18.546875 C 38.003906 -18.546875 42.257812 -21.800781 46.1875 -28.3125 Z M 53.84375 -7.890625 "/></g></g></g><g fill="#048748" fill-opacity="1"><g transform="translate(154.988754, 131.579286)"><g><path d="M 4.65625 -57.734375 L 0.5625 -57.734375 L 4.65625 -75.828125 L 22.875 -75.828125 L 22.875 -17.765625 L 26.765625 -17.765625 L 22.875 0 L 4.65625 0 Z M 4.65625 -57.734375 "/></g></g></g><g fill="#048748" fill-opacity="1"><g transform="translate(182.301725, 131.579286)"><g><path d="M 41.75 -0.5625 C 39.457031 0.03125 37.347656 0.457031 35.421875 0.71875 C 33.492188 0.976562 31.492188 1.109375 29.421875 1.109375 C 24.316406 1.109375 20.003906 0.238281 16.484375 -1.5 C 12.972656 -3.238281 9.957031 -5.992188 7.4375 -9.765625 C 3.8125 -15.171875 2 -21.207031 2 -27.875 C 2 -31.71875 2.585938 -35.304688 3.765625 -38.640625 C 4.953125 -41.972656 6.597656 -44.859375 8.703125 -47.296875 C 10.816406 -49.742188 13.28125 -51.671875 16.09375 -53.078125 C 18.90625 -54.484375 21.976562 -55.1875 25.3125 -55.1875 C 32.863281 -55.1875 38.601562 -51.78125 42.53125 -44.96875 C 45.707031 -39.269531 47.296875 -32.753906 47.296875 -25.421875 C 47.296875 -25.273438 47.296875 -24.921875 47.296875 -24.359375 C 47.296875 -23.804688 47.257812 -23.238281 47.1875 -22.65625 L 20.65625 -22.65625 C 21.6875 -19.84375 23.085938 -17.84375 24.859375 -16.65625 C 26.640625 -15.46875 29.195312 -14.875 32.53125 -14.875 C 34.457031 -14.875 36.601562 -15.078125 38.96875 -15.484375 C 41.34375 -15.890625 43.488281 -16.460938 45.40625 -17.203125 Z M 29.984375 -33.421875 C 29.609375 -36.015625 29.03125 -37.882812 28.25 -39.03125 C 27.476562 -40.175781 26.390625 -40.75 24.984375 -40.75 C 23.648438 -40.75 22.519531 -40.082031 21.59375 -38.75 C 20.664062 -37.414062 20.128906 -35.640625 19.984375 -33.421875 Z M 29.984375 -33.421875 "/></g></g></g><g fill="#048748" fill-opacity="1"><g transform="translate(231.265227, 131.579286)"><g><path d="M 23.3125 -0.21875 C 19.90625 -0.363281 17.296875 -0.710938 15.484375 -1.265625 C 13.671875 -1.828125 11.953125 -2.847656 10.328125 -4.328125 C 7.585938 -6.773438 5.515625 -9.957031 4.109375 -13.875 C 2.703125 -17.800781 2 -22.316406 2 -27.421875 C 2 -31.492188 2.476562 -35.195312 3.4375 -38.53125 C 4.40625 -41.863281 5.773438 -44.710938 7.546875 -47.078125 C 9.328125 -49.441406 11.492188 -51.253906 14.046875 -52.515625 C 16.597656 -53.773438 19.429688 -54.40625 22.546875 -54.40625 C 24.242188 -54.40625 25.773438 -54.21875 27.140625 -53.84375 C 28.515625 -53.476562 29.941406 -52.890625 31.421875 -52.078125 L 31.421875 -54.078125 L 48.96875 -54.078125 L 48.96875 -17.765625 L 52.84375 -17.765625 L 48.96875 0 L 30.75 0 L 30.75 -16.328125 L 27.09375 0 Z M 30.75 -28.203125 C 30.75 -29.535156 30.726562 -30.625 30.6875 -31.46875 C 30.65625 -32.320312 30.582031 -33.023438 30.46875 -33.578125 C 30.363281 -34.140625 30.238281 -34.585938 30.09375 -34.921875 C 29.945312 -35.253906 29.722656 -35.566406 29.421875 -35.859375 C 28.609375 -36.753906 27.609375 -37.203125 26.421875 -37.203125 C 24.722656 -37.203125 23.351562 -36.332031 22.3125 -34.59375 C 21.28125 -32.851562 20.765625 -30.578125 20.765625 -27.765625 C 20.765625 -21.023438 23.390625 -17.65625 28.640625 -17.65625 C 28.796875 -17.65625 29.09375 -17.65625 29.53125 -17.65625 C 29.976562 -17.65625 30.382812 -17.691406 30.75 -17.765625 Z M 30.75 -28.203125 "/></g></g></g><g fill="#048748" fill-opacity="1"><g transform="translate(284.669867, 131.579286)"><g><path d="M 4.65625 -35.859375 L 0.5625 -35.859375 L 4.65625 -54.078125 L 22.875 -54.078125 L 22.875 -37.75 L 26.53125 -54.078125 C 28.757812 -54.078125 30.5 -54.078125 31.75 -54.078125 C 33.007812 -54.078125 33.988281 -54.054688 34.6875 -54.015625 C 35.394531 -53.984375 35.96875 -53.925781 36.40625 -53.84375 C 36.851562 -53.769531 37.375 -53.660156 37.96875 -53.515625 C 39.519531 -53.148438 40.976562 -52.445312 42.34375 -51.40625 C 43.71875 -50.375 44.816406 -49.078125 45.640625 -47.515625 C 46.078125 -46.773438 46.425781 -46.070312 46.6875 -45.40625 C 46.945312 -44.738281 47.128906 -43.90625 47.234375 -42.90625 C 47.347656 -41.914062 47.421875 -40.601562 47.453125 -38.96875 C 47.492188 -37.34375 47.515625 -35.160156 47.515625 -32.421875 L 47.515625 -17.765625 L 51.40625 -17.765625 L 47.515625 0 L 29.3125 0 L 29.3125 -23.984375 C 29.3125 -25.910156 29.3125 -27.425781 29.3125 -28.53125 C 29.3125 -29.644531 29.289062 -30.535156 29.25 -31.203125 C 29.21875 -31.867188 29.144531 -32.382812 29.03125 -32.75 C 28.925781 -33.125 28.796875 -33.492188 28.640625 -33.859375 C 27.898438 -35.265625 26.382812 -35.96875 24.09375 -35.96875 C 23.945312 -35.96875 23.78125 -35.96875 23.59375 -35.96875 C 23.40625 -35.96875 23.164062 -35.929688 22.875 -35.859375 L 22.875 0 L 4.65625 0 Z M 4.65625 -35.859375 "/></g></g></g><g fill="#048748" fill-opacity="1"><g transform="translate(336.631122, 131.579286)"><g><path d="M 4.65625 -35.859375 L 0.5625 -35.859375 L 4.65625 -54.078125 L 22.875 -54.078125 L 22.875 -17.765625 L 26.765625 -17.765625 L 22.875 0 L 4.65625 0 Z M 7.765625 -76.28125 L 25.875 -76.28125 L 21.984375 -58.1875 L 3.78125 -58.1875 Z M 7.765625 -76.28125 "/></g></g></g><g fill="#048748" fill-opacity="1"><g transform="translate(363.944104, 131.579286)"><g><path d="M 4.890625 -35.96875 L -0.890625 -35.96875 L 3.109375 -54.078125 L 4.890625 -54.078125 L 4.890625 -54.84375 L 5 -60.953125 C 5.070312 -64.285156 5.53125 -66.929688 6.375 -68.890625 C 7.226562 -70.859375 8.65625 -72.46875 10.65625 -73.71875 C 11.320312 -74.164062 12.023438 -74.519531 12.765625 -74.78125 C 13.503906 -75.039062 14.375 -75.257812 15.375 -75.4375 C 16.375 -75.625 17.539062 -75.753906 18.875 -75.828125 C 20.207031 -75.910156 21.800781 -75.953125 23.65625 -75.953125 L 31.3125 -75.953125 L 27.09375 -57.84375 L 26.53125 -57.84375 L 25.09375 -57.734375 C 23.6875 -57.660156 23.019531 -56.441406 23.09375 -54.078125 L 31.203125 -54.078125 L 27.09375 -35.96875 L 23.09375 -35.96875 L 23.09375 0 L 4.890625 0 Z M 4.890625 -35.96875 "/></g></g></g><g fill="#048748" fill-opacity="1"><g transform="translate(393.699712, 131.579286)"><g><path d="M 6.546875 -1.78125 C 9.878906 -0.300781 12.632812 0.75 14.8125 1.375 C 17 2.007812 19.164062 2.328125 21.3125 2.328125 C 24.28125 2.328125 26.351562 1.441406 27.53125 -0.328125 C 28.71875 -2.109375 29.3125 -5.21875 29.3125 -9.65625 L 29.3125 -17.765625 L 26.203125 -4.109375 L 18.203125 -4.109375 C 16.285156 -4.109375 14.4375 -4.457031 12.65625 -5.15625 C 10.882812 -5.863281 9.367188 -6.847656 8.109375 -8.109375 C 6.847656 -9.367188 5.957031 -11.03125 5.4375 -13.09375 C 4.914062 -15.164062 4.65625 -18.238281 4.65625 -22.3125 L 4.65625 -35.859375 L 0.5625 -35.859375 L 4.65625 -54.078125 L 22.765625 -54.078125 L 22.765625 -32.859375 C 22.765625 -29.160156 22.800781 -26.585938 22.875 -25.140625 C 22.945312 -23.703125 23.128906 -22.6875 23.421875 -22.09375 C 24.085938 -20.6875 25.609375 -19.984375 27.984375 -19.984375 C 28.128906 -19.984375 28.332031 -19.984375 28.59375 -19.984375 C 28.851562 -19.984375 29.09375 -20.019531 29.3125 -20.09375 L 29.3125 -54.078125 L 47.515625 -54.078125 L 47.515625 -4.890625 C 47.515625 -2.441406 47.457031 -0.347656 47.34375 1.390625 C 47.238281 3.128906 47.019531 4.625 46.6875 5.875 C 46.351562 7.132812 45.925781 8.226562 45.40625 9.15625 C 44.894531 10.082031 44.226562 10.988281 43.40625 11.875 C 41.414062 13.945312 38.804688 15.519531 35.578125 16.59375 C 32.359375 17.664062 28.675781 18.203125 24.53125 18.203125 C 21.351562 18.203125 17.820312 17.867188 13.9375 17.203125 C 10.050781 16.535156 6.441406 15.648438 3.109375 14.546875 Z M 6.546875 -1.78125 "/></g></g></g><path stroke-linecap="butt" transform="matrix(0.747115, 0, 0, 0.747115, 451.941773, 18.764879)" fill="none" stroke-linejoin="miter" d="M 72.089289 140.442218 C 62.970883 148.473108 53.40806 152.488552 43.390362 152.488552 C 37.440394 152.488552 31.746619 151.024588 26.303809 148.09666 C 20.860999 145.168731 16.254741 141.085317 12.479804 135.83596 C 6.142931 127.031261 2.974494 116.035844 2.974494 102.854938 C 2.974494 93.130033 4.537799 84.435132 7.653951 76.765005 C 10.775332 69.100107 15.151539 62.982828 20.787801 58.40794 C 23.98238 55.846003 27.454066 53.87488 31.20286 52.494571 C 34.977797 51.093348 38.737048 50.392736 42.485842 50.392736 C 43.887064 50.392736 45.230774 50.486848 46.511743 50.680301 C 47.792712 50.873753 49.47627 51.224059 51.557191 51.731218 L 53.042069 48.615066 L 72.962439 57.827583 L 61.825854 87.399659 C 59.237774 83.93843 56.73335 81.449691 54.312581 79.922985 C 51.89704 78.375366 49.099823 77.601556 45.931386 77.601556 C 36.112369 77.601556 31.20286 85.669045 31.20286 101.804021 C 31.20286 109.542117 32.389717 115.539142 34.758202 119.795095 C 37.152829 124.056277 40.478119 126.184253 44.734072 126.184253 C 50.877493 126.184253 56.576497 121.82896 61.825854 113.123601 Z M 107.747273 77.130996 C 112.29079 77.130996 116.478774 78.051202 120.300766 79.886386 C 124.122758 81.726798 127.411449 84.325335 130.166839 87.687224 C 132.948371 91.049113 135.102489 95.043644 136.623966 99.660359 C 138.176814 104.256161 138.950624 109.285924 138.950624 114.754876 C 138.950624 120.291797 138.176814 125.394758 136.623966 130.063758 C 135.102489 134.711844 132.948371 138.69069 130.166839 142.000295 C 127.411449 145.315128 124.070474 147.89275 120.154369 149.727934 C 116.238265 151.568346 111.95617 152.488552 107.308084 152.488552 C 102.837765 152.488552 98.733437 151.542204 95.010785 149.659964 C 91.309047 147.772496 88.067412 145.147818 85.28588 141.785928 C 82.53049 138.424039 80.376371 134.445194 78.828752 129.849392 C 77.307275 125.227448 76.543922 120.197685 76.543922 114.754876 C 76.543922 109.285924 77.307275 104.256161 78.828752 99.660359 C 80.376371 95.043644 82.53049 91.075255 85.28588 87.760422 C 88.067412 84.445589 91.361331 81.847052 95.157181 79.959584 C 98.979173 78.072116 103.172385 77.130996 107.747273 77.130996 Z M 107.747273 101.945189 C 105.4729 101.945189 103.731828 103.121589 102.524058 105.463932 C 101.337201 107.790589 100.741159 111.126336 100.741159 115.481629 C 100.741159 119.931035 101.337201 123.329523 102.524058 125.677094 C 103.731828 127.998523 105.4729 129.159237 107.747273 129.159237 C 110.021646 129.159237 111.747032 127.998523 112.933889 125.677094 C 114.120746 123.329523 114.71156 120.025147 114.71156 115.769194 C 114.71156 106.556676 112.390131 101.945189 107.747273 101.945189 Z M 162.415878 122.011955 C 166.572491 122.011955 169.840268 123.402721 172.208753 126.184253 C 174.60338 128.965785 175.800693 132.725036 175.800693 137.467234 C 175.800693 142.230346 174.530182 146.005282 171.994387 148.786814 C 169.479505 151.542204 166.13853 152.922513 161.976689 152.922513 C 157.820076 152.922513 154.494786 151.542204 152.000819 148.786814 C 149.532993 146.005282 148.299081 142.329687 148.299081 137.754799 C 148.299081 133.017829 149.580049 129.206293 152.147215 126.33065 C 154.735295 123.449777 158.154697 122.011955 162.415878 122.011955 Z M 162.415878 122.011955 " stroke="#048748" stroke-width="3.994109" stroke-opacity="1" stroke-miterlimit="4"/></svg>